<svg width="60" height="60" viewBox="0 0 60 60" fill="none" xmlns="http://www.w3.org/2000/svg">
<circle cx="30" cy="30" r="30" fill="#C31E32"/>
<g clip-path="url(#clip0_821_424)">
<path d="M39.2962 20C39.1449 19.9998 38.9988 19.9447 38.885 19.845C36.8169 18.0254 34.2381 16.8879 31.5 16.5875C31.4184 16.5785 31.3394 16.5535 31.2674 16.514C31.1955 16.4745 31.132 16.4212 31.0807 16.3571C31.0294 16.2931 30.9912 16.2196 30.9682 16.1407C30.9453 16.0619 30.9382 15.9794 30.9471 15.8978C30.9561 15.8162 30.9811 15.7372 31.0206 15.6653C31.0601 15.5933 31.1134 15.5299 31.1775 15.4785C31.2415 15.4272 31.3151 15.389 31.3939 15.3661C31.4727 15.3432 31.5552 15.336 31.6368 15.345C34.6292 15.6722 37.4477 16.9145 39.7081 18.9025C39.8046 18.986 39.8732 19.0972 39.9047 19.2209C39.9362 19.3446 39.929 19.475 39.8841 19.5946C39.8393 19.7141 39.7589 19.817 39.6538 19.8895C39.5487 19.962 39.4239 20.0005 39.2962 20ZM15.9668 29.0625C15.9437 29.0625 15.9205 29.0612 15.8975 29.0587C15.7332 29.0405 15.5828 28.9579 15.4792 28.8291C15.3757 28.7002 15.3274 28.5356 15.345 28.3712C15.6705 25.376 16.913 22.5544 18.9025 20.2918C18.9547 20.2243 19.0202 20.1682 19.0949 20.127C19.1696 20.0857 19.252 20.0602 19.337 20.052C19.4219 20.0439 19.5077 20.0532 19.5889 20.0794C19.6701 20.1056 19.7451 20.1482 19.8092 20.2045C19.8734 20.2608 19.9253 20.3297 19.9618 20.4068C19.9983 20.484 20.0186 20.5678 20.0215 20.6531C20.0244 20.7384 20.0098 20.8234 19.9785 20.9028C19.9473 20.9823 19.9002 21.0545 19.84 21.115C18.0222 23.1837 16.8865 25.7624 16.5875 28.5C16.572 28.6539 16.5 28.7967 16.3853 28.9006C16.2707 29.0045 16.1216 29.0622 15.9668 29.0625ZM28.4375 44.6587C28.4143 44.6587 28.3911 44.6575 28.3681 44.655C25.3749 44.3283 22.5553 43.0859 20.2943 41.0975C20.2268 41.0453 20.1707 40.9798 20.1294 40.905C20.0882 40.8303 20.0627 40.7479 20.0545 40.663C20.0463 40.578 20.0556 40.4923 20.0819 40.411C20.1081 40.3298 20.1507 40.2548 20.207 40.1907C20.2633 40.1265 20.3322 40.0746 20.4093 40.0381C20.4865 40.0016 20.5703 39.9813 20.6556 39.9784C20.7409 39.9755 20.8259 39.9901 20.9053 40.0214C20.9847 40.0526 21.0569 40.0998 21.1175 40.16C23.1855 41.9772 25.7633 43.1129 28.5 43.4125C28.6584 43.4298 28.8042 43.5071 28.9075 43.6284C29.0109 43.7497 29.064 43.9059 29.056 44.0651C29.0481 44.2242 28.9796 44.3743 28.8646 44.4847C28.7496 44.595 28.5968 44.6573 28.4375 44.6587ZM40.625 39.9218C40.5049 39.9218 40.3873 39.8872 40.2864 39.8221C40.1854 39.7571 40.1054 39.6643 40.0558 39.5549C40.0062 39.4455 39.9892 39.3241 40.0068 39.2053C40.0244 39.0865 40.0758 38.9753 40.155 38.885C41.9745 36.8169 43.112 34.2381 43.4125 31.5C43.4306 31.3352 43.5135 31.1844 43.6428 31.0807C43.7721 30.9771 43.9374 30.929 44.1021 30.9472C44.2669 30.9653 44.4177 31.0482 44.5214 31.1775C44.6251 31.3069 44.6731 31.4721 44.655 31.6368C44.3282 34.6301 43.0859 37.4496 41.0975 39.7106C41.0384 39.7775 40.9656 39.831 40.8841 39.8674C40.8026 39.9039 40.7142 39.9224 40.625 39.9218ZM30.9375 44.7137C30.8554 44.7164 30.7736 44.7028 30.6968 44.6738C30.6199 44.6448 30.5495 44.601 30.4897 44.5448C30.4298 44.4886 30.3815 44.4212 30.3477 44.3464C30.3138 44.2716 30.2951 44.1908 30.2925 44.1087C30.2898 44.0266 30.3034 43.9449 30.3324 43.868C30.3614 43.7912 30.4052 43.7208 30.4614 43.6609C30.5175 43.601 30.585 43.5528 30.6598 43.519C30.7346 43.4851 30.8154 43.4664 30.8975 43.4637C33.6468 43.2869 36.2747 42.2661 38.4225 40.5406C38.4864 40.4879 38.5601 40.4485 38.6394 40.4246C38.7187 40.4007 38.8019 40.3928 38.8843 40.4013C38.9666 40.4098 39.0465 40.4346 39.1192 40.4743C39.1919 40.5139 39.256 40.5677 39.3077 40.6323C39.3595 40.6969 39.3979 40.7712 39.4207 40.8508C39.4435 40.9304 39.4503 41.0138 39.4406 41.096C39.4309 41.1783 39.405 41.2578 39.3643 41.3299C39.3237 41.402 39.2691 41.4654 39.2037 41.5162C36.8563 43.4024 33.9839 44.518 30.9787 44.7106C30.9666 44.7127 30.9529 44.7137 30.9375 44.7137ZM18.9706 39.4406C18.8768 39.4406 18.7843 39.4196 18.6998 39.379C18.6153 39.3384 18.541 39.2794 18.4825 39.2062C16.5963 36.8587 15.4805 33.9864 15.2875 30.9812C15.2767 30.8155 15.3322 30.6522 15.4418 30.5274C15.5514 30.4026 15.7061 30.3264 15.8718 30.3156C16.0376 30.3048 16.2008 30.3603 16.3257 30.4699C16.4505 30.5795 16.5267 30.7342 16.5375 30.9C16.7136 33.6491 17.7335 36.2769 19.4581 38.425C19.5317 38.5169 19.5778 38.6277 19.5911 38.7446C19.6045 38.8616 19.5846 38.9799 19.5336 39.0861C19.4827 39.1922 19.4028 39.2818 19.3032 39.3445C19.2036 39.4072 19.0883 39.4405 18.9706 39.4406ZM21.1875 19.595C21.0581 19.5949 20.9319 19.5546 20.8263 19.4798C20.7208 19.4049 20.6411 19.2991 20.5982 19.177C20.5554 19.0549 20.5514 18.9226 20.587 18.7982C20.6226 18.6737 20.6959 18.5634 20.7968 18.4825C23.1433 16.597 26.0142 15.4813 29.0181 15.2875C29.1838 15.2766 29.3471 15.3321 29.472 15.4416C29.5969 15.5511 29.6732 15.7058 29.684 15.8715C29.6949 16.0373 29.6394 16.2006 29.5299 16.3255C29.4204 16.4504 29.2657 16.5266 29.1 16.5375C26.3509 16.7136 23.723 17.7335 21.575 19.4581C21.4649 19.5461 21.3284 19.5943 21.1875 19.595ZM44.0881 29.6875C43.9291 29.6878 43.776 29.6276 43.6599 29.519C43.5438 29.4104 43.4734 29.2617 43.4631 29.1031C43.2862 26.3537 42.2654 23.7259 40.54 21.5781C40.4873 21.5142 40.4479 21.4404 40.4239 21.3612C40.4 21.2819 40.3921 21.1986 40.4006 21.1163C40.4092 21.0339 40.434 20.9541 40.4736 20.8814C40.5133 20.8087 40.567 20.7446 40.6316 20.6928C40.6963 20.641 40.7706 20.6026 40.8502 20.5798C40.9298 20.557 41.0131 20.5503 41.0954 20.56C41.1776 20.5696 41.2571 20.5956 41.3293 20.6362C41.4014 20.6769 41.4647 20.7315 41.5156 20.7968C43.4016 23.1441 44.5172 26.0163 44.71 29.0212C44.7154 29.1031 44.7046 29.1853 44.6783 29.2631C44.652 29.3408 44.6106 29.4126 44.5565 29.4744C44.5024 29.5361 44.4366 29.5866 44.363 29.623C44.2894 29.6593 44.2094 29.6808 44.1275 29.6862L44.0881 29.6875Z" fill="white"/>
<path d="M30.3125 17.76C29.9407 17.7598 29.5774 17.6493 29.2684 17.4426C28.9594 17.2358 28.7186 16.9421 28.5765 16.5986C28.4344 16.255 28.3973 15.8771 28.47 15.5125C28.5427 15.1479 28.7219 14.813 28.9848 14.5502C29.2478 14.2874 29.5828 14.1085 29.9474 14.036C30.3121 13.9636 30.69 14.0009 31.0335 14.1432C31.3769 14.2856 31.6705 14.5265 31.877 14.8357C32.0835 15.1448 32.1938 15.5082 32.1938 15.88C32.1933 16.3787 31.9949 16.8568 31.6421 17.2093C31.2894 17.5618 30.8112 17.7598 30.3125 17.76ZM30.3125 15.25C30.188 15.2502 30.0663 15.2874 29.9628 15.3568C29.8594 15.4262 29.7788 15.5246 29.7313 15.6398C29.6839 15.7549 29.6716 15.8815 29.696 16.0037C29.7205 16.1258 29.7806 16.2379 29.8687 16.3259C29.9569 16.4139 30.0691 16.4738 30.1913 16.498C30.3135 16.5222 30.4401 16.5096 30.5551 16.4619C30.6702 16.4142 30.7685 16.3335 30.8377 16.2299C30.9068 16.1263 30.9438 16.0045 30.9438 15.88C30.9437 15.7972 30.9273 15.7152 30.8955 15.6387C30.8637 15.5622 30.8172 15.4928 30.7586 15.4343C30.7 15.3758 30.6304 15.3294 30.5539 15.2978C30.4773 15.2661 30.3953 15.2499 30.3125 15.25ZM40.2062 22.1175C39.8343 22.1179 39.4705 22.0079 39.1611 21.8015C38.8516 21.595 38.6103 21.3014 38.4678 20.9578C38.3253 20.6142 38.2879 20.236 38.3604 19.8712C38.4329 19.5063 38.612 19.1712 38.875 18.9081C39.0936 18.6895 39.3628 18.5282 39.6586 18.4384C39.9545 18.3487 40.2679 18.3333 40.5711 18.3936C40.8744 18.4539 41.158 18.5881 41.397 18.7842C41.636 18.9804 41.8229 19.2324 41.9412 19.5181C42.0596 19.8037 42.1056 20.1141 42.0753 20.4218C42.045 20.7294 41.9393 21.0249 41.7675 21.282C41.5958 21.539 41.3632 21.7498 41.0906 21.8955C40.8179 22.0412 40.5135 22.1175 40.2044 22.1175H40.2062ZM40.2062 19.6075C40.1232 19.6076 40.0411 19.6242 39.9646 19.6564C39.8881 19.6886 39.8187 19.7357 39.7606 19.795C39.6581 19.8988 39.5948 20.0349 39.5814 20.1801C39.568 20.3254 39.6053 20.4708 39.6871 20.5916C39.7688 20.7124 39.8899 20.8011 40.0297 20.8426C40.1696 20.8842 40.3195 20.876 40.4539 20.8194C40.5883 20.7628 40.699 20.6614 40.7671 20.5324C40.8352 20.4034 40.8564 20.2548 40.8272 20.1119C40.798 19.969 40.7201 19.8406 40.6069 19.7486C40.4937 19.6567 40.3521 19.6068 40.2062 19.6075ZM44.12 32.1938C43.7482 32.1938 43.3848 32.0835 43.0757 31.877C42.7665 31.6705 42.5256 31.3769 42.3832 31.0335C42.2409 30.69 42.2036 30.3121 42.276 29.9474C42.3485 29.5828 42.5274 29.2478 42.7902 28.9848C43.053 28.7219 43.3879 28.5427 43.7525 28.47C44.1171 28.3973 44.495 28.4344 44.8386 28.5765C45.1821 28.7186 45.4758 28.9594 45.6826 29.2684C45.8893 29.5774 45.9998 29.9407 46 30.3125C45.9998 30.8112 45.8017 31.2894 45.4493 31.6421C45.0968 31.9949 44.6187 32.1933 44.12 32.1938ZM44.12 29.6838C43.9953 29.6838 43.8735 29.7207 43.7699 29.79C43.6662 29.8593 43.5855 29.9578 43.5378 30.0729C43.4902 30.1881 43.4778 30.3149 43.5022 30.4371C43.5266 30.5594 43.5867 30.6716 43.675 30.7597C43.7632 30.8477 43.8756 30.9076 43.9979 30.9318C44.1202 30.956 44.2469 30.9433 44.362 30.8954C44.4771 30.8476 44.5754 30.7666 44.6444 30.6628C44.7135 30.5591 44.7502 30.4372 44.75 30.3125C44.7495 30.1457 44.6829 29.9859 44.5649 29.868C44.4468 29.7502 44.2868 29.6839 44.12 29.6838ZM39.7625 42.0863C39.3276 42.0862 38.9061 41.9354 38.5698 41.6595C38.2336 41.3836 38.0035 40.9996 37.9186 40.573C37.8338 40.1464 37.8995 39.7036 38.1045 39.32C38.3096 38.9364 38.6413 38.6358 39.0431 38.4693C39.4449 38.3029 39.8921 38.2809 40.3083 38.4072C40.7245 38.5335 41.0841 38.8001 41.3257 39.1618C41.5673 39.5234 41.6761 39.9577 41.6335 40.3905C41.5908 40.8234 41.3994 41.2281 41.0919 41.5356C40.9177 41.7108 40.7105 41.8496 40.4823 41.9441C40.2542 42.0386 40.0095 42.0869 39.7625 42.0863ZM39.7625 39.5763C39.6168 39.5763 39.4755 39.6269 39.3629 39.7194C39.2503 39.8119 39.1732 39.9407 39.1448 40.0836C39.1165 40.2266 39.1385 40.375 39.2073 40.5035C39.2761 40.632 39.3873 40.7327 39.5219 40.7884C39.6566 40.8441 39.8064 40.8514 39.9459 40.8091C40.0854 40.7667 40.2058 40.6773 40.2867 40.5561C40.3677 40.4349 40.4041 40.2893 40.3897 40.1443C40.3754 39.9992 40.3112 39.8637 40.2081 39.7606C40.1498 39.7019 40.0803 39.6554 40.0038 39.6237C39.9273 39.5921 39.8453 39.5759 39.7625 39.5763ZM29.6875 46C29.3157 46 28.9522 45.8897 28.643 45.6832C28.3339 45.4766 28.0929 45.183 27.9506 44.8394C27.8083 44.4959 27.7711 44.1179 27.8436 43.7532C27.9162 43.3885 28.0952 43.0536 28.3581 42.7906C28.6211 42.5277 28.956 42.3487 29.3207 42.2761C29.6854 42.2036 30.0634 42.2408 30.4069 42.3831C30.7505 42.5254 31.0441 42.7664 31.2507 43.0755C31.4572 43.3847 31.5675 43.7482 31.5675 44.12C31.5668 44.6184 31.3686 45.0962 31.0161 45.4486C30.6637 45.8011 30.1859 45.9993 29.6875 46ZM29.6875 43.49C29.5629 43.49 29.4411 43.5269 29.3375 43.5962C29.2339 43.6654 29.1531 43.7638 29.1055 43.8789C29.0578 43.994 29.0453 44.1207 29.0696 44.2429C29.0939 44.3651 29.1539 44.4774 29.242 44.5655C29.3301 44.6536 29.4424 44.7136 29.5646 44.7379C29.6868 44.7622 29.8135 44.7497 29.9286 44.702C30.0437 44.6544 30.1421 44.5736 30.2113 44.47C30.2806 44.3664 30.3175 44.2446 30.3175 44.12C30.3173 43.953 30.2509 43.7928 30.1328 43.6747C30.0147 43.5566 29.8545 43.4902 29.6875 43.49ZM19.7938 41.6419C19.3591 41.6416 18.938 41.4907 18.6022 41.2147C18.2664 40.9388 18.0367 40.555 17.9521 40.1287C17.8675 39.7024 17.9334 39.2599 18.1384 38.8767C18.3435 38.4935 18.6751 38.1932 19.0767 38.0271C19.4783 37.8609 19.9251 37.8392 20.3409 37.9655C20.7568 38.0918 21.116 38.3584 21.3574 38.7198C21.5987 39.0813 21.7073 39.5152 21.6646 39.9478C21.6219 40.3803 21.4305 40.7846 21.1231 41.0919C20.9487 41.2666 20.7414 41.4051 20.5133 41.4994C20.2852 41.5938 20.0406 41.6422 19.7938 41.6419ZM19.7938 39.1325C19.6482 39.1326 19.5071 39.1832 19.3947 39.2757C19.2822 39.3681 19.2053 39.4967 19.1769 39.6395C19.1486 39.7823 19.1707 39.9305 19.2394 40.0588C19.3081 40.1872 19.4192 40.2878 19.5537 40.3434C19.6882 40.3991 19.8379 40.4064 19.9772 40.3641C20.1165 40.3218 20.2368 40.2325 20.3177 40.1115C20.3985 39.9904 20.4349 39.845 20.4206 39.7002C20.4064 39.5553 20.3423 39.4198 20.2394 39.3169C20.181 39.2582 20.1116 39.2116 20.0351 39.18C19.9586 39.1483 19.8765 39.1322 19.7938 39.1325ZM15.88 31.5662C15.5081 31.5662 15.1446 31.456 14.8354 31.2493C14.5262 31.0427 14.2852 30.749 14.143 30.4054C14.0007 30.0618 13.9636 29.6837 14.0362 29.319C14.1089 28.9543 14.288 28.6193 14.5511 28.3564C14.8141 28.0936 15.1492 27.9146 15.514 27.8422C15.8788 27.7698 16.2568 27.8072 16.6003 27.9497C16.9438 28.0922 17.2373 28.3334 17.4438 28.6427C17.6502 28.952 17.7602 29.3156 17.76 29.6875C17.7592 30.1857 17.5608 30.6633 17.2084 31.0155C16.8559 31.3677 16.3782 31.5658 15.88 31.5662ZM15.88 29.0562C15.7555 29.0562 15.6337 29.0932 15.5301 29.1623C15.4265 29.2315 15.3458 29.3298 15.2981 29.4449C15.2504 29.5599 15.2378 29.6865 15.262 29.8087C15.2862 29.9309 15.3461 30.0431 15.4341 30.1313C15.5221 30.2194 15.6342 30.2795 15.7563 30.304C15.8785 30.3284 16.0051 30.3161 16.1202 30.2687C16.2354 30.2212 16.3338 30.1406 16.4032 30.0372C16.4726 29.9337 16.5098 29.812 16.51 29.6875C16.5101 29.6047 16.4939 29.5227 16.4622 29.4461C16.4306 29.3696 16.3842 29.3 16.3257 29.2414C16.2672 29.1828 16.1978 29.1363 16.1213 29.1045C16.0448 29.0727 15.9628 29.0563 15.88 29.0562ZM20.2375 21.6731C19.8027 21.6729 19.3814 21.522 19.0455 21.246C18.7095 20.97 18.4796 20.586 18.395 20.1596C18.3104 19.7331 18.3762 19.2905 18.5813 18.9071C18.7865 18.5237 19.1182 18.2234 19.5199 18.0571C19.9217 17.8909 20.3687 17.8691 20.7847 17.9955C21.2007 18.1219 21.56 18.3886 21.8015 18.7502C22.0429 19.1118 22.1514 19.546 22.1087 19.9786C22.0659 20.4113 21.8744 20.8158 21.5669 21.1231C21.3924 21.2978 21.1852 21.4363 20.957 21.5307C20.7289 21.6251 20.4844 21.6735 20.2375 21.6731ZM20.2375 19.1638C20.0918 19.1638 19.9505 19.2144 19.8379 19.3069C19.7253 19.3994 19.6482 19.5282 19.6198 19.6711C19.5915 19.8141 19.6135 19.9625 19.6823 20.091C19.7511 20.2195 19.8623 20.3202 19.9969 20.3759C20.1316 20.4316 20.2814 20.4389 20.4209 20.3966C20.5604 20.3542 20.6808 20.2648 20.7617 20.1436C20.8427 20.0224 20.8791 19.8768 20.8647 19.7318C20.8504 19.5867 20.7862 19.4512 20.6831 19.3481C20.6248 19.2894 20.5553 19.2429 20.4788 19.2112C20.4023 19.1796 20.3203 19.1634 20.2375 19.1638ZM30.9412 26.5456C30.5694 26.5456 30.2059 26.4354 29.8968 26.2288C29.5876 26.0222 29.3466 25.7286 29.2044 25.3851C29.0621 25.0415 29.0248 24.6635 29.0974 24.2989C29.1699 23.9342 29.349 23.5992 29.6119 23.3363C29.8748 23.0733 30.2098 22.8943 30.5745 22.8217C30.9392 22.7492 31.3172 22.7864 31.6607 22.9287C32.0042 23.071 32.2978 23.312 32.5044 23.6212C32.711 23.9303 32.8213 24.2938 32.8213 24.6656C32.8208 25.1641 32.6225 25.642 32.2701 25.9944C31.9176 26.3469 31.4397 26.5451 30.9412 26.5456ZM30.9412 24.0356C30.8166 24.0356 30.6948 24.0726 30.5912 24.1418C30.4876 24.211 30.4069 24.3094 30.3592 24.4245C30.3115 24.5397 30.299 24.6663 30.3234 24.7885C30.3477 24.9107 30.4077 25.023 30.4958 25.1111C30.5839 25.1992 30.6961 25.2592 30.8183 25.2835C30.9406 25.3078 31.0672 25.2954 31.1823 25.2477C31.2975 25.2 31.3959 25.1192 31.4651 25.0156C31.5343 24.912 31.5713 24.7902 31.5713 24.6656C31.5711 24.4986 31.5047 24.3384 31.3865 24.2203C31.2684 24.1022 31.1083 24.0358 30.9412 24.0356ZM24.6656 32.8213C24.2938 32.8213 23.9303 32.711 23.6212 32.5044C23.312 32.2978 23.071 32.0042 22.9287 31.6607C22.7864 31.3172 22.7492 30.9392 22.8217 30.5745C22.8943 30.2098 23.0733 29.8748 23.3363 29.6119C23.5992 29.349 23.9342 29.1699 24.2989 29.0974C24.6635 29.0248 25.0415 29.0621 25.3851 29.2044C25.7286 29.3466 26.0222 29.5876 26.2288 29.8968C26.4354 30.2059 26.5456 30.5694 26.5456 30.9412C26.545 31.4397 26.3467 31.9175 25.9943 32.2699C25.6418 32.6223 25.164 32.8206 24.6656 32.8213ZM24.6656 30.3113C24.541 30.3113 24.4192 30.3482 24.3156 30.4174C24.212 30.4866 24.1313 30.585 24.0836 30.7002C24.0359 30.8153 24.0234 30.9419 24.0477 31.0642C24.072 31.1864 24.132 31.2986 24.2201 31.3867C24.3083 31.4748 24.4205 31.5348 24.5427 31.5591C24.6649 31.5835 24.7916 31.571 24.9067 31.5233C25.0218 31.4756 25.1202 31.3949 25.1895 31.2913C25.2587 31.1877 25.2956 31.0659 25.2956 30.9412C25.2951 30.7744 25.2286 30.6146 25.1105 30.4968C24.9924 30.3789 24.8324 30.3127 24.6656 30.3125V30.3113ZM32.8237 34.7044C32.4518 34.7044 32.0882 34.5941 31.7789 34.3874C31.4697 34.1808 31.2286 33.8871 31.0863 33.5434C30.9439 33.1998 30.9067 32.8217 30.9793 32.4569C31.0518 32.0921 31.2309 31.757 31.4939 31.4939C31.757 31.2309 32.0921 31.0518 32.4569 30.9793C32.8217 30.9067 33.1998 30.9439 33.5434 31.0863C33.8871 31.2286 34.1808 31.4697 34.3874 31.7789C34.5941 32.0882 34.7044 32.4518 34.7044 32.8237C34.7039 33.3224 34.5056 33.8004 34.153 34.153C33.8004 34.5056 33.3224 34.7039 32.8237 34.7044ZM32.8237 32.1938C32.699 32.1938 32.577 32.2308 32.4733 32.3001C32.3696 32.3694 32.2888 32.4679 32.2411 32.5832C32.1934 32.6985 32.1809 32.8253 32.2053 32.9476C32.2297 33.07 32.2898 33.1823 32.3781 33.2705C32.4663 33.3587 32.5787 33.4187 32.7011 33.443C32.8235 33.4672 32.9503 33.4546 33.0655 33.4068C33.1807 33.359 33.2792 33.2781 33.3484 33.1743C33.4176 33.0705 33.4545 32.9485 33.4544 32.8237C33.4542 32.6566 33.3877 32.4964 33.2694 32.3782C33.1512 32.2601 32.9909 32.1938 32.8237 32.1938Z" fill="white"/>
<path d="M30.9405 24.0356C30.7857 24.0355 30.6364 23.9779 30.5216 23.8739C30.4069 23.77 30.3347 23.6272 30.3193 23.4731L29.6943 17.1975C29.686 17.1159 29.694 17.0334 29.7177 16.9548C29.7413 16.8762 29.7803 16.803 29.8322 16.7395C29.8841 16.6759 29.9481 16.6232 30.0204 16.5844C30.0927 16.5456 30.172 16.5214 30.2536 16.5131C30.3353 16.5049 30.4178 16.5129 30.4964 16.5366C30.575 16.5602 30.6481 16.5991 30.7117 16.6511C30.7752 16.703 30.8279 16.767 30.8668 16.8393C30.9056 16.9116 30.9298 16.9909 30.938 17.0725L31.563 23.3481C31.5794 23.513 31.5297 23.6776 31.4248 23.8058C31.3199 23.934 31.1684 24.0153 31.0036 24.0319C30.9827 24.0344 30.9616 24.0356 30.9405 24.0356ZM32.8236 32.1938C32.6925 32.1937 32.5647 32.1523 32.4584 32.0756C32.3521 31.9989 32.2726 31.8907 32.2311 31.7663L30.348 26.1188C30.322 26.0408 30.3117 25.9585 30.3175 25.8765C30.3233 25.7945 30.3453 25.7145 30.382 25.641C30.4563 25.4925 30.5865 25.3797 30.7439 25.3272C30.9014 25.2747 31.0733 25.287 31.2217 25.3612C31.3702 25.4355 31.483 25.5657 31.5355 25.7231L33.418 31.3713C33.4493 31.4652 33.4578 31.5653 33.4429 31.6632C33.4279 31.7611 33.3899 31.854 33.332 31.9343C33.274 32.0147 33.1979 32.0801 33.1097 32.1252C33.0215 32.1703 32.9239 32.1938 32.8249 32.1938H32.8236ZM29.6874 43.49C29.6158 43.49 29.5447 43.4775 29.4774 43.4531C29.4001 43.4256 29.3289 43.383 29.268 43.328C29.2072 43.2729 29.1577 43.2064 29.1226 43.1322C29.0874 43.058 29.0672 42.9777 29.0631 42.8957C29.059 42.8137 29.071 42.7317 29.0986 42.6544L32.2355 33.8688C32.262 33.7901 32.3039 33.7174 32.3588 33.6551C32.4137 33.5927 32.4805 33.542 32.5552 33.5058C32.6299 33.4695 32.7111 33.4485 32.7941 33.4441C32.877 33.4396 32.96 33.4516 33.0382 33.4796C33.1164 33.5076 33.1883 33.5508 33.2496 33.6069C33.3109 33.6629 33.3604 33.7306 33.3952 33.806C33.4301 33.8814 33.4495 33.963 33.4525 34.046C33.4554 34.129 33.4418 34.2117 33.4124 34.2894L30.2749 43.075C30.2316 43.1963 30.152 43.3012 30.0468 43.3755C29.9417 43.4498 29.8161 43.4898 29.6874 43.49ZM24.6661 30.3125C24.5437 30.3126 24.424 30.2768 24.3218 30.2095C24.2196 30.1421 24.1394 30.0463 24.0911 29.9338L20.3261 21.1469C20.2636 20.9951 20.2633 20.8247 20.3254 20.6727C20.3874 20.5206 20.5068 20.3991 20.6577 20.3344C20.8087 20.2697 20.979 20.267 21.1319 20.3269C21.2848 20.3867 21.408 20.5044 21.4749 20.6544L25.2399 29.4375C25.2814 29.5327 25.2986 29.6367 25.2898 29.7402C25.2811 29.8437 25.2467 29.9434 25.1897 30.0302C25.1328 30.1171 25.0551 30.1884 24.9637 30.2377C24.8722 30.2869 24.77 30.3127 24.6661 30.3125ZM20.8999 39.7244C20.7915 39.7243 20.685 39.696 20.5908 39.6423C20.4967 39.5887 20.4181 39.5114 20.3628 39.4182C20.3075 39.3249 20.2774 39.2189 20.2755 39.1106C20.2736 39.0022 20.2998 38.8952 20.3518 38.8L24.1168 31.8969C24.1962 31.7514 24.3301 31.6433 24.4892 31.5966C24.6482 31.5498 24.8193 31.5681 24.9649 31.6475C25.1104 31.7269 25.2185 31.8609 25.2652 32.0199C25.312 32.179 25.2937 32.3501 25.2143 32.4956L21.4493 39.3988C21.3954 39.4974 21.316 39.5797 21.2193 39.637C21.1226 39.6944 21.0123 39.7245 20.8999 39.7244Z" fill="white"/>
<path d="M29.6875 25.2906C29.5843 25.2906 29.4828 25.2651 29.3919 25.2163L21.2319 20.8231C21.1591 20.7846 21.0946 20.7319 21.0422 20.6683C20.9897 20.6047 20.9504 20.5314 20.9265 20.4525C20.9025 20.3736 20.8944 20.2908 20.9026 20.2088C20.9108 20.1268 20.9351 20.0472 20.9742 19.9746C21.0132 19.902 21.0663 19.8379 21.1302 19.7859C21.1942 19.7339 21.2678 19.6951 21.3468 19.6717C21.4258 19.6482 21.5087 19.6407 21.5907 19.6494C21.6726 19.6581 21.7521 19.683 21.8244 19.7225L29.9825 24.1156C30.1049 24.1817 30.2018 24.2868 30.2578 24.4141C30.3138 24.5415 30.3257 24.6839 30.2916 24.8187C30.2575 24.9536 30.1794 25.0733 30.0697 25.1588C29.9599 25.2442 29.8248 25.2906 29.6856 25.2906H29.6875ZM34.0788 33.4494C33.9279 33.4495 33.782 33.3951 33.6681 33.2961C33.5543 33.1971 33.48 33.0603 33.4592 32.9108C33.4383 32.7614 33.4722 32.6095 33.5546 32.4831C33.637 32.3567 33.7624 32.2643 33.9075 32.2231L41.095 30.17L31.9331 25.8575C31.8572 25.8236 31.7889 25.7749 31.732 25.7143C31.6752 25.6536 31.631 25.5822 31.6021 25.5043C31.5731 25.4263 31.5601 25.3434 31.5636 25.2603C31.5671 25.1773 31.5872 25.0958 31.6226 25.0206C31.658 24.9453 31.7081 24.878 31.7699 24.8223C31.8317 24.7667 31.9039 24.724 31.9824 24.6966C32.0609 24.6693 32.1441 24.6579 32.2271 24.6631C32.3101 24.6683 32.3912 24.69 32.4656 24.7269L43.1306 29.75C43.2459 29.8041 43.3418 29.8921 43.4057 30.0022C43.4696 30.1123 43.4983 30.2393 43.488 30.3662C43.4778 30.4931 43.429 30.6138 43.3483 30.7122C43.2675 30.8106 43.1587 30.882 43.0363 30.9169L34.25 33.425C34.1943 33.441 34.1367 33.4492 34.0788 33.4494ZM31.5694 33.4494C31.5236 33.4493 31.4779 33.4443 31.4331 33.4344L25.7856 32.1788C25.7039 32.1626 25.6262 32.1303 25.5571 32.0838C25.4881 32.0372 25.429 31.9772 25.3834 31.9075C25.3379 31.8378 25.3067 31.7596 25.2917 31.6777C25.2768 31.5957 25.2784 31.5116 25.2964 31.4302C25.3145 31.3489 25.3486 31.272 25.3968 31.204C25.445 31.1361 25.5063 31.0784 25.5771 31.0345C25.6479 30.9906 25.7267 30.9613 25.809 30.9483C25.8913 30.9352 25.9754 30.9388 26.0563 30.9588L31.7044 32.2138C31.8551 32.2467 31.9884 32.3342 32.0785 32.4594C32.1686 32.5847 32.2092 32.7389 32.1924 32.8923C32.1757 33.0457 32.1028 33.1874 31.9877 33.2903C31.8727 33.3932 31.7237 33.4498 31.5694 33.4494ZM23.4113 31.5663C23.3693 31.5664 23.3274 31.5625 23.2863 31.5544L17.0125 30.2994C16.8499 30.2669 16.7069 30.1712 16.6148 30.0332C16.5228 29.8952 16.4894 29.7264 16.5219 29.5638C16.5544 29.4012 16.6501 29.2581 16.7881 29.1661C16.926 29.0741 17.0949 29.0407 17.2575 29.0731L23.5331 30.3288C23.6848 30.3596 23.8196 30.4455 23.9115 30.57C24.0035 30.6944 24.0459 30.8485 24.0308 31.0025C24.0156 31.1565 23.9439 31.2994 23.8294 31.4035C23.715 31.5077 23.566 31.5657 23.4113 31.5663Z" fill="white"/>
<path d="M39.0994 39.7243C39.0173 39.7245 38.9359 39.7085 38.8601 39.677C38.7842 39.6456 38.7154 39.5994 38.6575 39.5412L33.2694 34.1531C33.1555 34.0352 33.0925 33.8773 33.094 33.7134C33.0954 33.5496 33.1611 33.3928 33.277 33.2769C33.3929 33.1611 33.5496 33.0953 33.7135 33.0939C33.8774 33.0925 34.0353 33.1555 34.1531 33.2693L39.5413 38.6574C39.6286 38.7448 39.6881 38.8562 39.7122 38.9774C39.7364 39.0986 39.724 39.2243 39.6767 39.3385C39.6294 39.4527 39.5493 39.5503 39.4465 39.6189C39.3438 39.6876 39.223 39.7243 39.0994 39.7243ZM32.1969 24.6631C32.0524 24.6631 31.9124 24.6131 31.8006 24.5215C31.6889 24.4299 31.6123 24.3024 31.5839 24.1608C31.5556 24.0191 31.5772 23.872 31.645 23.7444C31.7129 23.6169 31.8229 23.5168 31.9563 23.4612L39.0413 20.5093C39.1937 20.4485 39.3639 20.4501 39.5152 20.5138C39.6665 20.5774 39.7866 20.698 39.8498 20.8495C39.9129 21.001 39.9138 21.1712 39.8525 21.3235C39.7912 21.4757 39.6724 21.5977 39.5219 21.6631L32.4375 24.6149C32.3613 24.647 32.2795 24.6633 32.1969 24.6631ZM21.0444 40.2681C20.9072 40.2682 20.7737 40.2232 20.6646 40.14C20.5555 40.0568 20.4769 39.9399 20.4407 39.8076C20.4046 39.6752 20.4131 39.5346 20.4648 39.4075C20.5165 39.2804 20.6086 39.1739 20.7269 39.1043L31.38 32.8374C31.5229 32.7534 31.6933 32.7296 31.8538 32.7712C31.9332 32.7918 32.0078 32.8278 32.0734 32.8773C32.1389 32.9267 32.194 32.9886 32.2356 33.0593C32.2772 33.1301 32.3045 33.2083 32.3159 33.2896C32.3273 33.3709 32.3225 33.4536 32.3019 33.5331C32.2813 33.6125 32.2453 33.6872 32.1958 33.7527C32.1464 33.8182 32.0845 33.8733 32.0138 33.9149L21.3606 40.1818C21.2648 40.2382 21.1556 40.268 21.0444 40.2681Z" fill="white"/>
</g>
<defs>
<clipPath id="clip0_821_424">
<rect width="32" height="32" fill="white" transform="translate(14 14)"/>
</clipPath>
</defs>
</svg>
