<svg width="60" height="60" viewBox="0 0 60 60" fill="none" xmlns="http://www.w3.org/2000/svg">
<circle cx="30" cy="30" r="30" fill="#C31E32"/>
<path d="M26 30L28.6667 32.6667L34 27.3334M24.4467 20.2627C25.4031 20.1864 26.3111 19.8103 27.0414 19.188C27.8666 18.4844 28.9156 18.0979 30 18.0979C31.0845 18.0979 32.1335 18.4844 32.9587 19.188C33.689 19.8103 34.597 20.1864 35.5534 20.2627C36.6344 20.3487 37.6493 20.8171 38.4161 21.5839C39.1829 22.3507 39.6514 23.3657 39.7374 24.4467C39.8137 25.4031 40.1898 26.3111 40.812 27.0414C41.5157 27.8666 41.9022 28.9156 41.9022 30C41.9022 31.0845 41.5157 32.1335 40.812 32.9587C40.1898 33.689 39.8137 34.597 39.7374 35.5534C39.6514 36.6344 39.1829 37.6493 38.4161 38.4161C37.6493 39.1829 36.6344 39.6514 35.5534 39.7374C34.597 39.8137 33.689 40.1898 32.9587 40.812C32.1335 41.5157 31.0845 41.9022 30 41.9022C28.9156 41.9022 27.8666 41.5157 27.0414 40.812C26.3111 40.1898 25.4031 39.8137 24.4467 39.7374C23.3657 39.6514 22.3507 39.1829 21.5839 38.4161C20.8171 37.6493 20.3487 36.6344 20.2627 35.5534C20.1864 34.597 19.8103 33.689 19.188 32.9587C18.4844 32.1335 18.0979 31.0845 18.0979 30C18.0979 28.9156 18.4844 27.8666 19.188 27.0414C19.8103 26.3111 20.1864 25.4031 20.2627 24.4467C20.3487 23.3657 20.8171 22.3507 21.5839 21.5839C22.3507 20.8171 23.3657 20.3487 24.4467 20.2627Z" stroke="white" stroke-width="2" stroke-linecap="round" stroke-linejoin="round"/>
</svg>
