<svg width="60" height="60" viewBox="0 0 60 60" fill="none" xmlns="http://www.w3.org/2000/svg">
<circle cx="30" cy="30" r="30" fill="#C31E32"/>
<path d="M23.3227 33.336C22.9691 33.336 22.6299 33.4765 22.3799 33.7265C22.1298 33.9766 21.9894 34.3157 21.9894 34.6693V37.0453C20.2708 35.1019 19.3223 32.597 19.3227 30.0027C19.3221 29.6105 19.3453 29.2187 19.392 28.8293C19.4175 28.6535 19.4075 28.4743 19.3627 28.3023C19.3179 28.1303 19.2391 27.969 19.1311 27.8279C19.0231 27.6868 18.8879 27.5687 18.7336 27.4806C18.5793 27.3925 18.4089 27.3361 18.2325 27.3148C18.056 27.2934 17.8771 27.3076 17.7062 27.3564C17.5354 27.4052 17.376 27.4877 17.2374 27.599C17.0989 27.7103 16.984 27.8481 16.8995 28.0045C16.815 28.1608 16.7626 28.3325 16.7454 28.5093C16.6851 29.0048 16.6553 29.5035 16.656 30.0027C16.6578 33.1842 17.8014 36.2595 19.8787 38.6693H17.9894C17.6357 38.6693 17.2966 38.8098 17.0465 39.0599C16.7965 39.3099 16.656 39.649 16.656 40.0027C16.656 40.3563 16.7965 40.6954 17.0465 40.9455C17.2966 41.1955 17.6357 41.336 17.9894 41.336H23.3227C23.5312 41.3333 23.7361 41.2808 23.9202 41.183C24.1043 41.0851 24.2624 40.9447 24.3814 40.7733C24.396 40.7533 24.416 40.7373 24.4307 40.716C24.44 40.7027 24.44 40.6867 24.448 40.6733C24.5115 40.5661 24.5591 40.4502 24.5894 40.3293C24.6094 40.2613 24.6236 40.1917 24.632 40.1213C24.636 40.0813 24.656 40.0453 24.656 40.0027V34.6693C24.656 34.3157 24.5155 33.9766 24.2655 33.7265C24.0154 33.4765 23.6763 33.336 23.3227 33.336ZM25.3227 22.0027H22.9454C24.8893 20.284 27.3946 19.3356 29.9894 19.336C30.3816 19.3351 30.7734 19.3587 31.1627 19.4067C31.514 19.4491 31.8678 19.3502 32.1462 19.1318C32.4247 18.9134 32.6049 18.5933 32.6474 18.242C32.6898 17.8907 32.5909 17.5369 32.3725 17.2585C32.1541 16.98 31.834 16.7998 31.4827 16.7573C30.9872 16.6977 30.4885 16.6684 29.9894 16.6693C26.8078 16.6712 23.7325 17.8147 21.3227 19.892V18.0027C21.3227 17.649 21.1822 17.3099 20.9322 17.0599C20.6821 16.8098 20.343 16.6693 19.9894 16.6693C19.6357 16.6693 19.2966 16.8098 19.0465 17.0599C18.7965 17.3099 18.656 17.649 18.656 18.0027V23.336C18.6642 23.4242 18.6817 23.5114 18.708 23.596C18.7402 23.7605 18.804 23.9172 18.896 24.0573L18.912 24.08C19 24.2079 19.1102 24.319 19.2374 24.408C19.252 24.4187 19.26 24.4347 19.2747 24.4453C19.2934 24.4587 19.3147 24.4627 19.3347 24.4733C19.4106 24.5189 19.491 24.5564 19.5747 24.5853C19.687 24.6245 19.804 24.6483 19.9227 24.656C19.9467 24.656 19.9654 24.6693 19.9894 24.6693H25.3227C25.6763 24.6693 26.0154 24.5289 26.2655 24.2788C26.5155 24.0288 26.656 23.6896 26.656 23.336C26.656 22.9824 26.5155 22.6432 26.2655 22.3932C26.0154 22.1431 25.6763 22.0027 25.3227 22.0027ZM41.2693 36.408C41.2371 36.2439 41.1733 36.0877 41.0814 35.948L41.0667 35.9253C40.9783 35.7973 40.8677 35.6862 40.74 35.5973C40.7254 35.5867 40.7187 35.5707 40.7027 35.56C40.6894 35.5507 40.672 35.5507 40.6573 35.5413C40.4882 35.447 40.3027 35.3855 40.1107 35.36C40.068 35.356 40.032 35.336 39.9894 35.336H34.656C34.3024 35.336 33.9633 35.4765 33.7132 35.7265C33.4632 35.9766 33.3227 36.3157 33.3227 36.6693C33.3227 37.023 33.4632 37.3621 33.7132 37.6121C33.9633 37.8622 34.3024 38.0027 34.656 38.0027H37.032C35.0885 39.7211 32.5836 40.6696 29.9894 40.6693C29.5971 40.6698 29.2053 40.6457 28.816 40.5973C28.4647 40.5549 28.1109 40.6538 27.8325 40.8722C27.554 41.0906 27.3738 41.4107 27.3314 41.762C27.2889 42.1133 27.3878 42.4671 27.6062 42.7455C27.8246 43.024 28.1447 43.2042 28.496 43.2467C28.9916 43.3063 29.4902 43.3361 29.9894 43.336C33.1709 43.3342 36.2462 42.1907 38.656 40.1133V42.0027C38.656 42.3563 38.7965 42.6954 39.0465 42.9455C39.2966 43.1955 39.6357 43.336 39.9894 43.336C40.343 43.336 40.6821 43.1955 40.9322 42.9455C41.1822 42.6954 41.3227 42.3563 41.3227 42.0027V36.6693C41.314 36.581 41.2962 36.4926 41.2693 36.408ZM41.9894 21.336C42.343 21.336 42.6821 21.1955 42.9322 20.9455C43.1822 20.6954 43.3227 20.3563 43.3227 20.0027C43.3227 19.649 43.1822 19.3099 42.9322 19.0599C42.6821 18.8098 42.343 18.6693 41.9894 18.6693H36.656C36.5691 18.6778 36.4833 18.6952 36.4 18.7213L36.3907 18.7227C36.229 18.7554 36.0751 18.8187 35.9374 18.9093L35.9107 18.9267C35.7833 19.0148 35.6726 19.1249 35.584 19.252C35.5734 19.2653 35.5574 19.2733 35.5467 19.288C35.5374 19.3013 35.5374 19.3187 35.528 19.3333C35.433 19.5036 35.3714 19.6906 35.3467 19.884C35.3427 19.924 35.3227 19.96 35.3227 20.0027V25.336C35.3227 25.6896 35.4632 26.0288 35.7132 26.2788C35.9633 26.5289 36.3024 26.6693 36.656 26.6693C37.0096 26.6693 37.3488 26.5289 37.5988 26.2788C37.8489 26.0288 37.9894 25.6896 37.9894 25.336V22.9587C39.7079 24.9027 40.6563 27.408 40.656 30.0027C40.6562 30.3948 40.6326 30.7867 40.5853 31.176C40.5432 31.5269 40.6419 31.8802 40.8599 32.1584C41.0778 32.4366 41.3972 32.617 41.748 32.66C41.802 32.6663 41.8563 32.6694 41.9107 32.6693C42.2362 32.6688 42.5502 32.5491 42.7936 32.333C43.037 32.1169 43.193 31.8192 43.232 31.496C43.2927 31.0005 43.323 30.5018 43.3227 30.0027C43.3209 26.8211 42.1773 23.7458 40.1 21.336H41.9894Z" fill="white"/>
</svg>
