<svg width="100" height="100" viewBox="0 0 100 100" fill="none" xmlns="http://www.w3.org/2000/svg">
<path fill-rule="evenodd" clip-rule="evenodd" d="M60.7222 81.0086C76.4109 70.9332 85.1267 59.2061 86.8695 45.8275C89.5828 25.0002 70.9574 14.8059 61.5201 23.9655C52.0828 33.125 57.7399 44.7511 64.5734 47.929C71.407 51.1071 75.5859 50.0003 74.857 54.2471C74.128 58.4938 64.4059 70.2684 55.8647 75.7519C55.298 76.2338 55.0824 77.1688 55.628 77.8782C55.987 78.3446 56.6909 79.2595 57.7399 80.6229C58.6572 81.8151 59.5359 81.7705 60.7222 81.0086Z" fill="white"/>
<path fill-rule="evenodd" clip-rule="evenodd" d="M19.4176 81.0086C35.1061 70.9332 43.822 59.2061 45.5649 45.8275C48.278 25.0002 29.6526 14.8059 20.2153 23.9655C10.778 33.125 16.4351 44.7511 23.2686 47.929C30.1022 51.1071 34.2813 50.0003 33.5522 54.2471C32.8232 58.4938 23.1011 70.2684 14.5599 75.7519C13.9932 76.2338 13.7776 77.1688 14.3234 77.8782C14.6822 78.3446 15.3861 79.2595 16.4351 80.6229C17.3524 81.8151 18.2311 81.7705 19.4176 81.0086Z" fill="white"/>
</svg>
